<?xml version="1.0" standalone="no"?><!DOCTYPE svg PUBLIC "-//W3C//DTD SVG 1.1//EN" "http://www.w3.org/Graphics/SVG/1.1/DTD/svg11.dtd"><svg t="1734396960617" class="icon" viewBox="0 0 1024 1024" version="1.1" xmlns="http://www.w3.org/2000/svg" p-id="6123" width="16" height="16" xmlns:xlink="http://www.w3.org/1999/xlink"><path d="M482.9184 12.8l-6.2208 0.128a155.5712 155.5712 0 0 0-146.7648 127.2576C306.2528 268.7232 294.4 392.704 294.4 512s11.8528 243.2768 35.5328 371.8144a155.5712 155.5712 0 0 0 152.9856 127.3856 115.712 115.712 0 0 0 113.664-137.2928A1937.1264 1937.1264 0 0 1 562.304 512c0-120.6016 11.4176-241.2288 34.304-361.9072A115.712 115.712 0 0 0 482.944 12.8z m361.1392 796.5184a38.4 38.4 0 0 0-68.3008 35.0976 702.848 702.848 0 0 0 42.24 71.3728h-3.456a38.4 38.4 0 0 0-38.2208 34.688l-0.1792 3.712a38.4 38.4 0 0 0 34.7136 38.2208l3.6864 0.1792h93.1072a38.4 38.4 0 0 0 38.2208-34.7136l0.1792-3.6864v-93.1072a38.4 38.4 0 0 0-76.2624-6.5536c-9.3184-14.8992-17.92-29.9776-25.728-45.2096zM115.2 793.6A38.4 38.4 0 0 0 76.8 832v102.4a38.4 38.4 0 0 0 76.8 0v-102.4A38.4 38.4 0 0 0 115.2 793.6zM482.9184 89.6l3.6352 0.1792 3.6096 0.512a38.912 38.912 0 0 1 30.976 45.4912A2013.9008 2013.9008 0 0 0 485.4784 512c0 125.44 11.904 250.88 35.712 376.2432a38.912 38.912 0 0 1-38.2464 46.1568 78.7712 78.7712 0 0 1-77.4656-64.512C382.6176 745.856 371.2 626.56 371.2 512s11.4176-233.856 34.2528-357.888a78.7712 78.7712 0 0 1 77.4656-64.512z m260.8128 452.7104a38.4 38.4 0 0 0-36.9664 39.7568c1.3312 36.7872 5.8368 72.9088 13.4912 108.3392a38.4 38.4 0 0 0 75.0848-16.2304 541.2608 541.2608 0 0 1-11.8272-94.8992 38.4 38.4 0 0 0-39.7824-36.9664zM115.2 537.6A38.4 38.4 0 0 0 76.8 576v102.4a38.4 38.4 0 0 0 76.8 0v-102.4A38.4 38.4 0 0 0 115.2 537.6z m677.9648-246.6304a38.4 38.4 0 0 0-48.0256 25.3696 919.6544 919.6544 0 0 0-25.7024 103.7312 38.4 38.4 0 1 0 75.52 13.9776c5.76-31.0784 13.6192-62.7712 23.552-95.0528a38.4 38.4 0 0 0-25.344-48.0256zM115.2 281.6A38.4 38.4 0 0 0 76.8 320v102.4a38.4 38.4 0 0 0 76.8 0v-102.4A38.4 38.4 0 0 0 115.2 281.6z m301.824 10.8032l-0.4864 2.944-5.4016 48.5632a25.6 25.6 0 0 0 50.3808 8.6272l0.512-2.944 5.376-48.5632a25.6 25.6 0 0 0-50.3552-8.6272z m23.936-152.3712l-0.7168 2.8928-12.9792 66.5344a25.6 25.6 0 0 0 49.5104 12.6976l0.7424-2.8928 12.9792-66.5344a25.6 25.6 0 0 0-49.536-12.6976zM945.92 66.4832a38.4 38.4 0 0 0-47.5648-33.8944l-93.1072 23.2704-3.5328 1.0752A38.4 38.4 0 0 0 777.2928 102.4l1.0752 3.5328a38.4 38.4 0 0 0 45.4912 24.3968l-3.0208 0.5888c-6.2464 12.416-12.2112 24.7808-17.9712 37.0688a38.4 38.4 0 0 0 69.632 32.4608c1.9456-4.1984 3.9168-8.3968 5.9392-12.5952a38.4 38.4 0 0 0 67.584-24.9344V69.8112zM115.2 25.6A38.4 38.4 0 0 0 76.8 64v102.4a38.4 38.4 0 0 0 76.8 0v-102.4A38.4 38.4 0 0 0 115.2 25.6z" fill="#ffffff" p-id="6124"></path></svg>