<?xml version="1.0" standalone="no"?><!DOCTYPE svg PUBLIC "-//W3C//DTD SVG 1.1//EN" "http://www.w3.org/Graphics/SVG/1.1/DTD/svg11.dtd"><svg t="1734415804098" class="icon" viewBox="0 0 1024 1024" version="1.1" xmlns="http://www.w3.org/2000/svg" p-id="9161" width="16" height="16" xmlns:xlink="http://www.w3.org/1999/xlink"><path d="M897.6 754.8c24.2-76.1 6.2-162.8-54-223.1L824 512.1l0.1-0.1-99.9-99.9-0.1 0.1-112.1-112 19.6-19.6c30.9-30.9 81.2-30.9 112.1 0 30.9 30.9 30.9 81.2 0 112.1l-7 7 99.9 99.9 7-7c60.3-60.3 78.3-147.2 53.9-223.4 70.6-4.3 126.5-62.8 126.5-134.4C1024 60.3 963.7 0 889.3 0 817.6 0 759 56 754.8 126.7c-76.1-24.2-162.8-6.2-223.1 54l-19.6 19.6-0.3-0.3-99.8 99.8 0.3 0.3-99.3 99.4 99.9 99.9 99.3-99.3 112.1 112.1-231.6 231.5c-30.9 30.9-81.2 30.9-112.1 0-30.9-30.9-30.9-81.2 0-112.1l19.6-19.6 99.8 99.8 99.9-99.9-99.9-99.8 0.3-0.3-99.8-99.8-0.3 0.3-19.6-19.6c-30.9-30.9-30.9-81.2 0-112.1 15.5-15.4 35.8-23.2 56.1-23.2 20.3 0 40.6 7.7 56.1 23.2l6.8 6.8 99.9-99.9-6.8-6.8c-60.3-60.4-147.2-78.3-223.4-53.9C265.1 56.1 206.5 0 134.8 0 60.4 0 0.1 60.3 0.1 134.8c0 71.7 56.1 130.3 126.8 134.5-24.3 76.2-6.4 163 53.9 223.4l19.6 19.6-19.6 19.6c-60.3 60.3-78.2 147-54 223.1C56.1 759 0 817.6 0 889.3 0 963.7 60.3 1024 134.7 1024c71.7 0 130.2-56 134.4-126.6 21.9 7 44.7 10.6 67.5 10.6 56.5 0 112.9-21.5 155.9-64.5l19.6-19.6 19.6 19.6c43 43 99.5 64.5 155.9 64.5 22.7 0 45.4-3.5 67.2-10.5 4.3 70.5 62.8 126.4 134.4 126.4 74.4 0 134.7-60.3 134.7-134.7 0.1-71.5-55.8-130.1-126.3-134.4z m-153.9-11.1c-30.9 30.9-81.2 30.9-112.1 0L612 724.1 724.2 612l19.6 19.6c30.8 30.9 30.8 81.2-0.1 112.1z" fill="#ffffff" p-id="9162"></path></svg>