<?xml version="1.0" standalone="no"?><!DOCTYPE svg PUBLIC "-//W3C//DTD SVG 1.1//EN" "http://www.w3.org/Graphics/SVG/1.1/DTD/svg11.dtd"><svg t="1733992976302" class="icon" viewBox="0 0 1024 1024" version="1.1" xmlns="http://www.w3.org/2000/svg" p-id="17097" width="16" height="16" xmlns:xlink="http://www.w3.org/1999/xlink"><path d="M938.666667 0H384a85.333333 85.333333 0 0 0-85.333333 85.333333v469.333334a85.333333 85.333333 0 0 0 85.333333 85.333333h42.666667v91.306667a85.333333 85.333333 0 0 0 170.666666 0V640h341.333334a85.333333 85.333333 0 0 0 85.333333-85.333333V85.333333a85.333333 85.333333 0 0 0-85.333333-85.333333z m-128 554.666667h-298.666667a85.333333 85.333333 0 0 1 0-170.666667h298.666667a85.333333 85.333333 0 0 1 0 170.666667z m0-256h-298.666667a85.333333 85.333333 0 0 1 0-170.666667h298.666667a85.333333 85.333333 0 0 1 0 170.666667z" fill="#ffffff" p-id="17098"></path><path d="M0 0m85.333333 0l42.666667 0q85.333333 0 85.333333 85.333333l0 469.333334q0 85.333333-85.333333 85.333333l-42.666667 0q-85.333333 0-85.333333-85.333333l0-469.333334q0-85.333333 85.333333-85.333333Z" fill="#ffffff" p-id="17099"></path><path d="M698.88 725.333333a42.666667 42.666667 0 0 0-42.666667 34.133334 149.333333 149.333333 0 0 1-290.986666 0 42.666667 42.666667 0 0 0-42.666667-34.133334H85.333333a85.333333 85.333333 0 0 0-85.333333 85.333334v128a85.333333 85.333333 0 0 0 85.333333 85.333333h853.333334a85.333333 85.333333 0 0 0 85.333333-85.333333v-128a85.333333 85.333333 0 0 0-85.333333-85.333334z" fill="#ffffff" p-id="17100"></path></svg>