<?xml version="1.0" standalone="no"?><!DOCTYPE svg PUBLIC "-//W3C//DTD SVG 1.1//EN" "http://www.w3.org/Graphics/SVG/1.1/DTD/svg11.dtd"><svg t="1733992922043" class="icon" viewBox="0 0 1024 1024" version="1.1" xmlns="http://www.w3.org/2000/svg" p-id="9752" width="16" height="16" xmlns:xlink="http://www.w3.org/1999/xlink"><path d="M312.302858 201.060154a92.527852 92.527852 0 0 0 2.26414 22.490457H23.398603A23.094227 23.094227 0 0 1 0.304376 200.607326a22.792342 22.792342 0 0 1 23.094227-22.641399h291.168395a99.924042 99.924042 0 0 0-2.26414 23.094227zM1023.544681 200.607326a22.792342 22.792342 0 0 1-22.641399 22.943285H600.4524a92.527852 92.527852 0 0 0 2.26414-22.490457 99.924042 99.924042 0 0 0-2.26414-23.094227h400.450882a22.490457 22.490457 0 0 1 22.641399 22.641399zM1023.544681 528.303845a22.490457 22.490457 0 0 1-22.641399 22.6414H23.398603A22.792342 22.792342 0 0 1 0.304376 528.303845a23.094227 23.094227 0 0 1 23.094227-22.943284h977.504679a22.792342 22.792342 0 0 1 22.641399 22.943284z" fill="#ffffff" p-id="9753"></path><path d="M0.304376 833.05708m22.792342 0l546.412436 0q22.792342 0 22.792342 22.792342l0 0.150942q0 22.792342-22.792342 22.792342l-546.412436 0q-22.792342 0-22.792342-22.792342l0-0.150942q0-22.792342 22.792342-22.792342Z" fill="#ffffff" p-id="9754"></path><path d="M181.888398 1023.395777m0-22.792342l0-977.655622q0-22.792342 22.792342-22.792342l0.150943 0q22.792342 0 22.792342 22.792342l0 977.655622q0 22.792342-22.792342 22.792342l-0.150943 0q-22.792342 0-22.792342-22.792342Z" fill="#ffffff" p-id="9755"></path><path d="M600.4524 177.965927a144.301185 144.301185 0 0 0-119.244703-120.75413V22.645928A22.641399 22.641399 0 0 0 458.11347 0.004528a22.188571 22.188571 0 0 0-22.490457 22.6414v34.716812a143.848357 143.848357 0 0 0-120.75413 120.754129 99.924042 99.924042 0 0 0-2.264139 23.094228 92.527852 92.527852 0 0 0 2.264139 22.490456 143.848357 143.848357 0 0 0 120.75413 120.75413v655.845866a22.792342 22.792342 0 0 0 22.490457 22.943285 23.094227 23.094227 0 0 0 23.094227-22.943285v-656.600579a143.848357 143.848357 0 0 0 119.244703-120.75413 92.527852 92.527852 0 0 0 2.26414-22.490457 99.924042 99.924042 0 0 0-2.26414-22.490456z m-45.282799 45.282798a99.622157 99.622157 0 0 1-73.509076 74.112847 85.282604 85.282604 0 0 1-23.999883 3.169796 82.867521 82.867521 0 0 1-21.584801-2.716968 98.565558 98.565558 0 0 1-75.471331-74.565675 92.678794 92.678794 0 0 1-2.716968-22.490456 94.942934 94.942934 0 0 1 2.716968-23.094228 98.414616 98.414616 0 0 1 75.471331-74.414732 82.867521 82.867521 0 0 1 21.584801-2.716968 85.282604 85.282604 0 0 1 23.999883 3.169796 99.471214 99.471214 0 0 1 73.509076 73.961904 94.942934 94.942934 0 0 1 2.716968 23.094228 92.678794 92.678794 0 0 1-3.169796 22.792342zM958.941222 505.360561H905.960348a96.452361 96.452361 0 0 0-62.792148-50.112964 96.905189 96.905189 0 0 0-45.282798 0 92.376909 92.376909 0 0 0-61.886492 50.112964h-52.980874a142.640816 142.640816 0 0 1 115.169251-99.7731V22.645928A22.641399 22.641399 0 0 1 821.130572 0.004528a22.339514 22.339514 0 0 1 22.641399 22.490457v383.092476a143.244586 143.244586 0 0 1 115.169251 99.7731z" fill="#ffffff" p-id="9756"></path><path d="M1006.186275 800.000637c-2.415083-13.433897-11.018814-22.037629-21.735743-21.735744h-1.509427a40.301691 40.301691 0 0 1-40.150748-40.150748 44.377143 44.377143 0 0 1 3.622624-15.094266 27.622507 27.622507 0 0 0-9.358445-33.207385L890.866082 664.152241a27.924392 27.924392 0 0 0-11.169757-2.26414 30.188532 30.188532 0 0 0-21.282916 8.754674 59.471409 59.471409 0 0 1-31.999844 18.264063 60.377065 60.377065 0 0 1-32.150787-18.565948 30.188532 30.188532 0 0 0-32.452672-6.79242l-46.188455 25.50931a27.320622 27.320622 0 0 0-9.207502 33.207386 47.395996 47.395996 0 0 1 3.471681 15.094266 40.301691 40.301691 0 0 1-40.150748 40.150748h-1.811312A23.24517 23.24517 0 0 0 643.923887 800.000637a218.414032 218.414032 0 0 0-3.92451 36.226239 215.848007 215.848007 0 0 0 3.92451 36.075296 23.396113 23.396113 0 0 0 21.433858 21.886686h1.811312a40.150748 40.150748 0 0 1 40.150748 40.150748 45.282799 45.282799 0 0 1-3.471682 15.094266 27.471564 27.471564 0 0 0 9.207503 33.207386l43.924314 24.603654a27.924392 27.924392 0 0 0 11.169757 2.26414 30.188532 30.188532 0 0 0 21.433858-9.05656A61.433663 61.433663 0 0 1 824.149425 981.131831a60.377065 60.377065 0 0 1 32.9055 19.924432 29.131934 29.131934 0 0 0 21.584801 9.358445 27.169679 27.169679 0 0 0 11.018814-2.26414l45.282799-25.207425a27.320622 27.320622 0 0 0 9.358445-33.056443 46.792225 46.792225 0 0 1-3.622624-15.094266 40.301691 40.301691 0 0 1 42.263945-41.207347h1.811312a23.396113 23.396113 0 0 0 21.433858-21.735743 218.564975 218.564975 0 0 0 3.92451-36.226239 218.414032 218.414032 0 0 0-3.92451-36.226239z m-12.377298 70.037395c-1.358484 6.79242-4.981108 11.471642-9.05656 11.471642h-1.811312a52.829932 52.829932 0 0 0-52.829931 52.829932 54.943129 54.943129 0 0 0 4.679222 20.226317 15.094266 15.094266 0 0 1-4.981108 17.660291L884.828375 996.226097a15.094266 15.094266 0 0 1-5.886764 1.207542 16.905578 16.905578 0 0 1-12.226355-5.132051 95.395762 95.395762 0 0 0-16.603693-14.18861 46.188455 46.188455 0 0 0-25.660253-9.811273 71.395879 71.395879 0 0 0-41.96206 23.547055 17.358406 17.358406 0 0 1-12.226355 4.981108 15.999922 15.999922 0 0 1-6.037707-1.207541l-43.320544-24.301769a15.094266 15.094266 0 0 1-4.981108-17.660291 54.188416 54.188416 0 0 0 4.679223-20.226317 52.829932 52.829932 0 0 0-52.829932-52.829932h-1.811312c-4.075452 0-7.698076-4.679223-9.056559-11.471642a220.225344 220.225344 0 0 1-3.622624-33.811156 220.678172 220.678172 0 0 1 3.622624-33.962099c1.358484-6.79242 4.981108-11.471642 9.056559-11.471643h1.811312a52.829932 52.829932 0 0 0 52.829932-52.678989 54.792186 54.792186 0 0 0-4.679223-20.377259 15.094266 15.094266 0 0 1 4.981108-17.660291l45.282799-25.056482a15.84898 15.84898 0 0 1 6.037706-1.056599 17.207463 17.207463 0 0 1 12.226356 4.830165 98.716501 98.716501 0 0 0 15.848979 13.433897 38.792264 38.792264 0 0 0 49.962022 0 92.075024 92.075024 0 0 0 16.301807-13.132011 16.905578 16.905578 0 0 1 12.075413-4.830166 15.094266 15.094266 0 0 1 6.037706 1.207542l44.075258 24.452711a15.094266 15.094266 0 0 1 4.981108 17.660291 55.5469 55.5469 0 0 0-4.679223 20.37726 52.829932 52.829932 0 0 0 52.829932 52.678989h1.811312c4.075452 0 7.698076 4.679223 9.056559 11.471642a220.678172 220.678172 0 0 1 3.622624 33.962099 224.753624 224.753624 0 0 1-3.622624 33.811156z m-169.508609-102.942896a68.226083 68.226083 0 1 0 68.226083 68.226084 68.377026 68.377026 0 0 0-68.226083-68.226084z m0 123.772983a55.5469 55.5469 0 1 1 55.546899-55.546899A55.5469 55.5469 0 0 1 824.300368 890.566234z" fill="#ffffff" p-id="9757"></path><path d="M878.639726 1023.999547a43.320544 43.320544 0 0 1-31.697959-13.735782 53.584645 53.584645 0 0 0-22.792342-15.094266 55.395957 55.395957 0 0 0-22.792342 15.094266 43.622429 43.622429 0 0 1-47.999766 10.113158l-2.415083-1.207541-45.282799-25.358367a41.509232 41.509232 0 0 1-14.18861-50.112964 31.245131 31.245131 0 0 0 2.26414-9.66033 26.565909 26.565909 0 0 0-26.565908-26.716852h-1.811312a36.679067 36.679067 0 0 1-34.716813-32.754557 227.319649 227.319649 0 0 1-4.226394-38.641322 250.866704 250.866704 0 0 1 4.075452-38.792264 36.980952 36.980952 0 0 1 34.867755-32.754557h1.811312a26.565909 26.565909 0 0 0 26.565908-26.565909 32.150787 32.150787 0 0 0-2.415083-9.962216 41.207347 41.207347 0 0 1 14.037668-49.660135l2.566025-1.509427L755.017686 650.265516a43.471487 43.471487 0 0 1 47.999766 9.66033 53.433702 53.433702 0 0 0 22.339514 15.094267 53.584645 53.584645 0 0 0 22.339514-15.094267 45.282799 45.282799 0 0 1 47.546939-9.358445l1.962254 0.905656 46.792226 26.113081a41.509232 41.509232 0 0 1 14.18861 49.962021 29.282876 29.282876 0 0 0-2.415083 9.811273 26.716851 26.716851 0 0 0 27.169679 26.565909 36.980952 36.980952 0 0 1 36.075297 32.754557 258.56478 258.56478 0 0 1 4.075451 38.792264 255.545927 255.545927 0 0 1-4.075451 38.641322 36.980952 36.980952 0 0 1-34.867755 32.754557h-1.207542a26.565909 26.565909 0 0 0-26.565908 26.716852 36.980952 36.980952 0 0 0 2.415082 9.962215 41.056404 41.056404 0 0 1-14.037667 49.509193l-2.113197 1.358484-47.245054 26.113081a41.207347 41.207347 0 0 1-16.754635 3.471681z m-54.490301-68.829854a60.377065 60.377065 0 0 1 33.358328 12.075413A115.018308 115.018308 0 0 1 875.771815 983.546914a3.018853 3.018853 0 0 0 2.26414 0l44.377143-24.452711a61.584606 61.584606 0 0 1-6.339592-26.264024 66.414771 66.414771 0 0 1 63.697803-66.263828 209.357472 209.357472 0 0 0 3.320739-31.245131 209.659357 209.659357 0 0 0-3.320739-31.396074 66.414771 66.414771 0 0 1-63.697803-66.263829 69.584567 69.584567 0 0 1 5.584879-25.660252l-43.320544-25.207425-2.113198 1.207542a123.923925 123.923925 0 0 1-18.565947 15.094266 52.226161 52.226161 0 0 1-64.754402 0 114.112652 114.112652 0 0 1-18.71689-15.094266 4.981108 4.981108 0 0 0-2.415083-0.754714l-44.075257 23.999884a120.75413 120.75413 0 0 1 5.13205 27.018736 66.414771 66.414771 0 0 1-63.697803 66.263829 217.659319 217.659319 0 0 0-3.320738 31.396073 209.357472 209.357472 0 0 0 3.320738 31.245131 66.414771 66.414771 0 0 1 63.697803 66.414772 73.358134 73.358134 0 0 1-5.584878 25.660252L770.111952 984.150684l1.811312-1.056598c1.207541-1.207541 26.264023-27.924392 52.226161-27.924393z m0-38.037551A81.810923 81.810923 0 1 1 905.960348 835.32122a81.810923 81.810923 0 0 1-81.65998 81.810922z m0-123.772982a41.96206 41.96206 0 1 0 41.96206 41.96206 41.96206 41.96206 0 0 0-41.811117-41.96206z" fill="#ffffff" p-id="9758"></path></svg>