<?xml version="1.0" standalone="no"?><!DOCTYPE svg PUBLIC "-//W3C//DTD SVG 1.1//EN" "http://www.w3.org/Graphics/SVG/1.1/DTD/svg11.dtd"><svg t="1735018648812" class="icon" viewBox="0 0 1024 1024" version="1.1" xmlns="http://www.w3.org/2000/svg" p-id="8137" width="16" height="16" xmlns:xlink="http://www.w3.org/1999/xlink"><path d="M782.377779 573.44a208.896 208.896 0 0 1 208.85504 208.896 208.896 208.896 0 1 1-208.85504-208.896z m97.15712-573.44c10.0352 0 19.6608 3.97312 26.624 11.30496a34.16064 34.16064 0 0 1 9.46176 25.8048l0.04096 498.36032a278.528 278.528 0 0 0-346.60352 430.32576l-110.592-64.88064-120.99584 70.98368c-6.144 3.4816-12.86144 5.20192-19.82464 5.3248a35.59424 35.59424 0 0 1-18.71872-5.3248L176.948019 899.97312l-121.0368 70.8608a39.7312 39.7312 0 0 1-37.31456 0A36.0448 36.0448 0 0 1 0.000819 939.04896V36.94592A36.70016 36.70016 0 0 1 36.537139 0h842.9568z m26.624 862.65856H658.637619c-9.13408 0-16.50688 9.74848-16.50688 21.62688 0 10.56768 5.85728 19.41504 13.5168 21.25824l2.99008 0.32768h247.56224c9.0112 0 16.384-9.6256 16.50688-21.58592 0-11.8784-7.3728-21.62688-16.50688-21.62688z m-140.9024-235.39712c-30.72 6.67648-54.19008 30.3104-59.47392 60.08832-5.3248 29.77792 8.51968 59.63776 35.14368 75.73504 6.47168 4.01408 10.40384 11.10016 10.40384 18.75968a22.9376 22.9376 0 0 1-19.82464 22.28224l-3.85024 0.28672H680.346419c-19.57888 0-35.84 14.17216-38.05184 32.44032l-0.24576 4.3008h280.576a36.41344 36.41344 0 0 0-11.30496-25.72288 39.5264 39.5264 0 0 0-22.528-10.69056l-5.07904-0.32768h-46.2848a23.1424 23.1424 0 0 1-23.67488-22.56896 21.54496 21.54496 0 0 1 10.32192-18.75968 73.27744 73.27744 0 0 0 36.4544-63.0784 73.3184 73.3184 0 0 0-29.2864-58.32704 80.81408 80.81408 0 0 0-65.9456-14.41792zM272.548659 100.92544l-40.5504 6.67648c5.5296 9.58464 10.69056 20.2752 15.48288 32.07168H119.522099v36.4544h64.88064L196.567859 221.184H122.471219v85.15584c-0.73728 48.29184-10.69056 85.89312-29.4912 113.17248l29.12256 26.17344c25.06752-35.0208 37.96992-81.5104 39.44448-139.34592v-47.9232h260.25984v-37.2736H338.494259c5.89824-14.7456 10.69056-29.4912 14.37696-44.93312h61.19424V139.6736H286.884659a330.42432 330.42432 0 0 0-14.37696-38.7072zM767.591219 260.25984h-264.68352V356.7616h112.4352v14.336h-119.43936v24.73984h119.43936v15.48288h-146.71872v28.75392h332.51328v-28.75392h-147.456v-15.48288h120.91392v-24.69888h-120.91392V356.7616h113.90976V260.21888z m-36.49536 58.5728v15.89248h-77.4144v-15.85152h77.4144z m-115.75296 0v15.89248h-75.93984v-15.85152h75.93984z m0-36.08576v15.48288h-75.93984v-15.48288h75.93984z m115.75296 0v15.48288h-77.4144v-15.48288h77.4144z m70.0416-63.40608h-332.51328v27.27936h332.51328v-27.27936zM316.007219 176.128a278.9376 278.9376 0 0 1-14.7456 44.97408H234.537779L222.372659 176.128h93.63456z m443.84256-65.61792h-248.832v94.74048h248.832V110.55104z m-36.864 58.24512v15.11424h-175.104v-15.1552h175.104z m0-36.49536v15.11424h-175.104v-15.1552h175.104z" fill="#ffffff" p-id="8138"></path></svg>