<?xml version="1.0" standalone="no"?><!DOCTYPE svg PUBLIC "-//W3C//DTD SVG 1.1//EN" "http://www.w3.org/Graphics/SVG/1.1/DTD/svg11.dtd"><svg t="1734315316566" class="icon" viewBox="0 0 1024 1024" version="1.1" xmlns="http://www.w3.org/2000/svg" p-id="5550" width="16" height="16" xmlns:xlink="http://www.w3.org/1999/xlink"><path d="M836.9 63.5H164.84c-24.73 0-44.77 20.05-44.77 44.77v806.45c0 24.73 20.05 44.77 44.77 44.77H836.9c24.73 0 44.77-20.04 44.77-44.77V108.28c0-24.73-20.05-44.78-44.77-44.78z m-560.03 672c-18.56 0-33.6-15.04-33.6-33.6 0-18.56 15.04-33.6 33.6-33.6 18.56 0 33.6 15.04 33.6 33.6 0 18.56-15.04 33.6-33.6 33.6z m0-179.2c-18.56 0-33.6-15.04-33.6-33.6 0-18.56 15.04-33.6 33.6-33.6 18.56 0 33.6 15.04 33.6 33.6 0 18.56-15.04 33.6-33.6 33.6z m0-201.6c-18.56 0-33.6-15.04-33.6-33.6 0-18.56 15.04-33.6 33.6-33.6 18.56 0 33.6 15.04 33.6 33.6 0 18.56-15.04 33.6-33.6 33.6z m481.6 380.8h-358.4c-12.37 0-22.4-10.02-22.4-22.4 0-12.38 10.03-22.4 22.4-22.4h358.4c12.37 0 22.4 10.02 22.4 22.4 0 12.38-10.03 22.4-22.4 22.4z m0-201.6h-358.4c-12.37 0-22.4-10.02-22.4-22.4 0-12.38 10.03-22.4 22.4-22.4h358.4c12.37 0 22.4 10.02 22.4 22.4 0 12.38-10.03 22.4-22.4 22.4z m0-201.6h-358.4c-12.37 0-22.4-10.02-22.4-22.4 0-12.38 10.03-22.4 22.4-22.4h358.4c12.37 0 22.4 10.02 22.4 22.4 0 12.38-10.03 22.4-22.4 22.4z" fill="#ffffff" p-id="5551"></path></svg>